<?xml version="1.0" standalone="no"?>
<!DOCTYPE svg PUBLIC "-//W3C//DTD SVG 20010904//EN"
 "http://www.w3.org/TR/2001/REC-SVG-20010904/DTD/svg10.dtd">
<svg version="1.0" xmlns="http://www.w3.org/2000/svg"
 width="512.000000pt" height="512.000000pt" viewBox="0 0 512.000000 512.000000"
 preserveAspectRatio="xMidYMid meet">

<g transform="translate(0.000000,512.000000) scale(0.100000,-0.100000)"
fill="#000000" stroke="none">
<path d="M581 4584 c-153 -41 -276 -164 -317 -318 -9 -33 -14 -107 -14 -208
l0 -158 110 0 110 0 0 153 c0 125 4 159 19 192 23 51 89 111 138 124 56 16
2492 15 2544 0 50 -16 105 -61 132 -112 22 -42 22 -46 25 -581 l3 -540 109
109 110 110 0 417 c0 268 -4 436 -11 470 -35 165 -163 301 -324 343 -86 22
-2550 22 -2634 -1z"/>
<path d="M4577 3990 c-20 -5 -56 -19 -80 -31 -29 -14 -365 -343 -1070 -1047
l-1028 -1027 -34 -110 c-112 -363 -157 -530 -151 -564 6 -39 42 -77 81 -87 16
-4 136 27 342 87 l318 92 1033 1031 c1152 1150 1092 1083 1092 1221 0 119 -18
154 -142 282 -79 80 -123 117 -158 132 -58 25 -149 34 -203 21z m201 -303 c77
-79 82 -87 82 -127 0 -40 -5 -48 -77 -122 l-78 -79 -130 131 -129 130 49 51
c134 138 161 139 283 16z m-1939 -2181 c-3 -3 -56 -21 -117 -40 l-112 -33 -45
45 -45 45 21 71 c11 39 27 93 36 120 l15 48 126 -125 c69 -70 124 -129 121
-131z"/>
<path d="M635 3841 c-22 -10 -49 -28 -59 -40 -18 -20 -27 -21 -233 -21 -229 0
-254 -5 -287 -52 -9 -13 -16 -43 -16 -71 0 -42 5 -54 34 -83 l34 -34 224 0
c216 0 226 -1 244 -21 74 -82 212 -75 291 14 36 41 48 86 41 158 -12 124 -157
203 -273 150z"/>
<path d="M1100 3660 l0 -110 800 0 800 0 0 110 0 110 -800 0 -800 0 0 -110z"/>
<path d="M250 3290 l0 -130 110 0 110 0 0 130 0 130 -110 0 -110 0 0 -130z"/>
<path d="M660 3118 c-19 -5 -52 -23 -72 -39 l-37 -29 -206 0 c-229 0 -262 -7
-289 -59 -23 -43 -20 -103 6 -136 38 -49 69 -55 287 -55 l200 0 46 -32 c92
-65 224 -44 283 44 37 56 43 148 13 206 -25 49 -71 86 -126 101 -47 13 -58 13
-105 -1z"/>
<path d="M1100 2930 l0 -110 800 0 800 0 0 110 0 110 -800 0 -800 0 0 -110z"/>
<path d="M250 2560 l0 -130 110 0 110 0 0 130 0 130 -110 0 -110 0 0 -130z"/>
<path d="M600 2355 l-52 -35 -199 0 c-218 0 -249 -6 -287 -55 -26 -33 -29 -92
-7 -134 27 -54 61 -61 290 -61 l206 0 37 -29 c98 -78 238 -53 300 54 19 33 22
52 20 106 -6 119 -80 189 -200 189 -47 0 -64 -5 -108 -35z"/>
<path d="M1100 2190 l0 -110 588 0 587 0 110 110 110 110 -698 0 -697 0 0
-110z"/>
<path d="M250 1830 l0 -130 110 0 110 0 0 130 0 130 -110 0 -110 0 0 -130z"/>
<path d="M630 1641 c-19 -11 -44 -28 -54 -40 -18 -20 -28 -21 -244 -21 l-224
0 -34 -34 c-29 -29 -34 -41 -34 -83 0 -28 7 -58 16 -71 33 -47 58 -52 287 -52
206 0 215 -1 233 -21 27 -31 93 -59 139 -59 53 0 121 35 158 82 53 66 50 181
-6 245 -61 69 -164 92 -237 54z"/>
<path d="M1100 1460 l0 -110 453 0 453 0 12 43 c6 23 20 72 31 110 l20 67
-485 0 -484 0 0 -110z"/>
<path d="M3438 1463 l-107 -108 -3 -225 c-3 -210 -4 -228 -25 -267 -27 -51
-82 -96 -132 -112 -52 -15 -2488 -16 -2544 0 -49 13 -115 73 -138 124 -15 33
-19 67 -19 193 l0 152 -110 0 -110 0 0 -157 c0 -173 10 -229 56 -312 35 -65
109 -140 172 -174 109 -59 51 -57 1422 -57 1380 0 1315 -3 1426 61 66 37 145
123 177 192 43 89 48 148 45 485 l-3 312 -107 -107z"/>
</g>
</svg>
